<?xml version="1.0" standalone="no"?><svg xmlns="http://www.w3.org/2000/svg" viewBox="0 0 1440 320"><path fill="#8F86F5" fill-opacity="0.42" d="M0,64L18.5,53.3C36.9,43,74,21,111,58.7C147.7,96,185,192,222,245.3C258.5,299,295,309,332,261.3C369.2,213,406,107,443,69.3C480,32,517,64,554,106.7C590.8,149,628,203,665,192C701.5,181,738,107,775,117.3C812.3,128,849,224,886,245.3C923.1,267,960,213,997,192C1033.8,171,1071,181,1108,170.7C1144.6,160,1182,128,1218,112C1255.4,96,1292,96,1329,112C1366.2,128,1403,160,1422,176L1440,192L1440,320L1421.5,320C1403.1,320,1366,320,1329,320C1292.3,320,1255,320,1218,320C1181.5,320,1145,320,1108,320C1070.8,320,1034,320,997,320C960,320,923,320,886,320C849.2,320,812,320,775,320C738.5,320,702,320,665,320C627.7,320,591,320,554,320C516.9,320,480,320,443,320C406.2,320,369,320,332,320C295.4,320,258,320,222,320C184.6,320,148,320,111,320C73.8,320,37,320,18,320L0,320Z"></path></svg>